<?xml version="1.0" standalone="no"?>
<!DOCTYPE svg PUBLIC "-//W3C//DTD SVG 20010904//EN" "http://www.w3.org/TR/2001/REC-SVG-20010904/DTD/svg10.dtd">
<svg version="1.0" xmlns="http://www.w3.org/2000/svg" width="360.000000pt" height="360.000000pt"
    viewBox="0 0 360.000000 360.000000" preserveAspectRatio="xMidYMid meet">

    <g transform="translate(0.000000,360.000000) scale(0.100000,-0.100000)" fill="#ff0000" stroke="none">
        <path d="M2264 2686 c-161 -39 -265 -176 -316 -415 -11 -53 -22 -102 -24 -109
-3 -9 -17 -2 -44 21 -107 91 -273 147 -441 147 -225 0 -423 -93 -561 -264
-105 -131 -152 -271 -152 -451 -1 -208 59 -350 208 -501 97 -98 185 -151 311
-190 94 -28 297 -26 395 4 121 39 234 105 300 177 14 15 53 47 87 72 149 107
191 196 258 556 42 220 64 297 112 390 75 143 197 207 396 207 l82 0 -186 185
-185 185 -95 -1 c-51 0 -117 -6 -145 -13z m226 -41 l23 -25 -48 0 c-31 0 -55
6 -67 17 -28 25 -22 33 25 33 33 0 49 -6 67 -25z m-161 -16 c27 -22 27 -21
-17 -39 -30 -12 -35 -11 -58 11 -23 22 -24 24 -8 36 25 18 55 16 83 -8z m-122
-96 c-25 -28 -39 -29 -62 -3 -18 20 -18 21 5 45 l23 24 27 -22 28 -22 -21 -22z
m-83 -52 c16 -18 16 -21 1 -50 -18 -36 -22 -37 -47 -14 -21 19 -23 36 -6 63
16 25 30 25 52 1z m616 -86 l23 -25 -50 0 c-40 0 -54 5 -73 25 l-23 25 50 0
c40 0 54 -5 73 -25z m-170 -10 c26 -28 26 -28 -17 -43 -27 -9 -34 -7 -54 14
-25 26 -24 29 11 43 35 14 34 14 60 -14z m-500 -79 c-6 -20 -13 -36 -16 -36
-2 0 -13 9 -24 20 -23 23 -24 37 -10 76 l11 28 26 -26 c23 -24 24 -28 13 -62z
m380 24 c25 -25 25 -31 -6 -53 -24 -18 -26 -18 -45 -1 -23 21 -24 32 -2 56 21
23 28 23 53 -2z m-84 -91 c22 -20 22 -22 6 -55 -8 -19 -19 -34 -22 -34 -4 0
-17 11 -29 24 -23 24 -23 25 -5 55 10 17 20 31 23 31 3 0 15 -9 27 -21z m-332
-68 c-9 -46 -8 -46 -38 -24 -21 15 -24 23 -19 53 8 51 13 54 39 29 20 -19 23
-29 18 -58z m-284 -53 c57 -39 75 -72 75 -138 0 -66 -18 -99 -75 -137 -66 -45
-171 -22 -218 47 -20 30 -23 45 -20 97 3 42 10 71 24 89 47 64 152 84 214 42z
m558 -1 c19 -20 20 -27 10 -60 l-11 -37 -28 26 c-24 23 -26 29 -16 60 12 40
17 41 45 11z m-1055 -90 c125 -95 59 -287 -98 -287 -164 0 -221 216 -79 298
53 31 128 26 177 -11z m1009 -44 c18 -16 22 -53 9 -86 -6 -17 -8 -16 -29 6
-19 20 -22 31 -17 61 8 41 11 43 37 19z m-30 -150 c19 -17 24 -68 10 -91 -6
-9 -14 -6 -31 12 -18 19 -21 30 -16 60 8 41 11 43 37 19z m-26 -154 c18 -17
20 -26 14 -55 -11 -47 -13 -48 -39 -20 -18 19 -21 30 -16 60 8 42 11 43 41 15z
m-210 -28 c126 -93 66 -291 -88 -291 -57 0 -96 17 -131 60 -66 77 -36 204 58
246 43 20 124 13 161 -15z m-528 -3 c34 -34 -6 -90 -48 -68 -23 12 -28 65 -7
73 22 9 43 7 55 -5z m-317 -118 c99 -51 117 -186 34 -259 -72 -63 -159 -60
-226 8 -52 51 -61 111 -28 178 41 83 137 115 220 73z m1029 -55 c-10 -31 -14
-35 -26 -24 -9 10 -11 28 -7 57 6 43 6 44 26 24 17 -18 18 -24 7 -57z m-40
-85 c0 -17 -31 -72 -37 -67 -8 8 17 77 28 77 5 0 9 -5 9 -10z m-499 -116 c62
-59 75 -123 39 -194 -70 -137 -268 -109 -304 43 -9 39 10 102 42 138 56 63
164 69 223 13z" />
    </g>
</svg>