<svg width="181" height="151" viewBox="0 0 181 151" xmlns="http://www.w3.org/2000/svg">
    <path
        d="M129.296 1.42056C115.834 4.6814 107.139 16.1361 102.874 36.1192C101.955 40.5506 101.035 44.6475 100.868 45.2328C100.617 45.9853 99.4464 45.4 97.1889 43.477C88.2425 35.8683 74.3631 31.1861 60.3164 31.1861C41.5039 31.1861 24.9489 38.9619 13.4106 53.2594C4.63139 64.2125 0.701665 75.9181 0.701665 90.9681C0.618053 108.359 5.63472 120.232 18.0928 132.857C26.2031 141.051 33.5608 145.483 44.0958 148.743C51.9553 151.084 68.9283 150.917 77.1222 148.409C87.2392 145.148 96.6872 139.63 102.206 133.61C103.376 132.356 106.637 129.68 109.48 127.59C121.938 118.643 125.449 111.202 131.051 81.1019C134.563 62.7075 136.403 56.2694 140.416 48.4936C146.687 36.5372 156.887 31.1861 173.526 31.1861H180.382L164.83 15.7181L149.362 0.25L141.419 0.333618C137.155 0.333618 131.637 0.835281 129.296 1.42056ZM148.192 4.84862L150.115 6.93889H146.101C143.509 6.93889 141.503 6.43723 140.499 5.5175C138.158 3.42723 138.66 2.75833 142.59 2.75833C145.349 2.75833 146.687 3.25999 148.192 4.84862ZM134.73 6.18639C136.988 8.02583 136.988 7.94223 133.309 9.44722C130.801 10.4506 130.383 10.3669 128.459 8.5275C126.536 6.68806 126.453 6.52083 127.791 5.5175C129.881 4.0125 132.389 4.17972 134.73 6.18639ZM124.53 14.2131C122.439 16.5542 121.269 16.6378 119.346 14.4639C117.841 12.7917 117.841 12.7081 119.764 10.7014L121.687 8.69472L123.944 10.5342L126.286 12.3736L124.53 14.2131ZM117.59 18.5608C118.928 20.0658 118.928 20.3167 117.674 22.7414C116.169 25.7514 115.834 25.835 113.744 23.9119C111.988 22.3233 111.821 20.9019 113.242 18.6444C114.58 16.5542 115.751 16.5542 117.59 18.5608ZM169.094 25.7514L171.018 27.8417H166.837C163.493 27.8417 162.322 27.4236 160.733 25.7514L158.81 23.6611H162.991C166.335 23.6611 167.506 24.0792 169.094 25.7514ZM154.881 26.5875C157.054 28.9286 157.054 28.9286 153.459 30.1828C151.202 30.9353 150.616 30.7681 148.944 29.0122C146.854 26.8383 146.938 26.5875 149.864 25.4169C152.79 24.2464 152.707 24.2464 154.881 26.5875ZM113.075 33.1928C112.573 34.865 111.988 36.2028 111.737 36.2028C111.57 36.2028 110.65 35.4503 109.731 34.5306C107.808 32.6075 107.724 31.437 108.894 28.1761L109.814 25.835L111.988 28.0089C113.911 30.0156 113.995 30.35 113.075 33.1928ZM144.847 31.1861C146.938 33.2764 146.938 33.7781 144.346 35.6175C142.339 37.1225 142.172 37.1225 140.583 35.7011C138.66 33.9453 138.576 33.0256 140.416 31.0189C142.172 29.0958 142.757 29.0958 144.847 31.1861ZM137.824 38.7947C139.663 40.4669 139.663 40.6342 138.326 43.3933C137.657 44.9819 136.737 46.2361 136.486 46.2361C136.152 46.2361 135.065 45.3164 134.061 44.2294C132.138 42.2228 132.138 42.1392 133.643 39.6308C134.479 38.2094 135.316 37.0389 135.566 37.0389C135.817 37.0389 136.821 37.7914 137.824 38.7947ZM110.065 44.4803C109.313 48.3264 109.396 48.3264 106.888 46.4869C105.132 45.2328 104.881 44.5639 105.299 42.0556C105.968 37.7914 106.386 37.5406 108.56 39.6308C110.232 41.2195 110.483 42.0556 110.065 44.4803ZM86.3195 48.9117C91.0853 52.1725 92.5903 54.9317 92.5903 60.45C92.5903 65.9683 91.0853 68.7275 86.3195 71.9047C80.8011 75.6672 72.0219 73.7442 68.0922 67.975C66.42 65.4667 66.1692 64.2125 66.42 59.8647C66.6708 56.3531 67.2561 53.9283 68.4267 52.4233C72.3564 47.0722 81.1356 45.4 86.3195 48.9117ZM132.974 48.9953C134.563 50.6675 134.647 51.2528 133.811 54.0119L132.891 57.1056L130.55 54.9317C128.543 53.0086 128.376 52.507 129.212 49.915C130.215 46.5706 130.633 46.4869 132.974 48.9953ZM44.7647 56.5203C55.2161 64.4633 49.6978 80.5167 36.5708 80.5167C22.8586 80.5167 18.0928 62.4567 29.9656 55.6006C34.3969 53.0086 40.6678 53.4267 44.7647 56.5203ZM129.128 60.1992C130.633 61.5369 130.968 64.6306 129.881 67.3897C129.379 68.8111 129.212 68.7275 127.456 66.8881C125.868 65.2158 125.617 64.2961 126.035 61.7878C126.704 58.3597 126.954 58.1925 129.128 60.1992ZM126.62 72.7408C128.209 74.1622 128.627 78.4264 127.456 80.3494C126.954 81.1019 126.286 80.8511 124.864 79.3461C123.359 77.7575 123.108 76.8378 123.526 74.3294C124.195 70.9014 124.446 70.7342 126.62 72.7408ZM124.446 85.6169C125.951 87.0383 126.118 87.7908 125.617 90.2156C124.697 94.1453 124.53 94.2289 122.356 91.8878C120.851 90.2992 120.6 89.3794 121.018 86.8711C121.687 83.3594 121.938 83.2758 124.446 85.6169ZM106.888 87.9581C117.423 95.7339 112.406 112.289 99.53 112.289C94.7642 112.289 91.5033 110.868 88.577 107.272C83.0586 100.834 85.5669 90.2156 93.4264 86.7039C97.0217 85.0317 103.794 85.6169 106.888 87.9581ZM62.7411 88.2089C65.5839 91.0517 62.2394 95.7339 58.7278 93.8944C56.8047 92.8911 56.3867 88.4597 58.1425 87.7908C59.9819 87.0383 61.7378 87.2056 62.7411 88.2089ZM36.2364 98.075C44.5139 102.339 46.0189 113.627 39.0792 119.73C33.0592 124.998 25.785 124.747 20.1831 119.061C15.8353 114.797 15.0828 109.781 17.8419 104.179C21.27 97.2389 29.2967 94.5633 36.2364 98.075ZM122.272 102.674C121.436 105.266 121.102 105.6 120.098 104.68C119.346 103.844 119.179 102.339 119.513 99.9144C120.015 96.3192 120.015 96.2356 121.687 97.9078C123.108 99.4128 123.192 99.9144 122.272 102.674ZM118.928 109.781C118.928 111.202 116.336 115.801 115.834 115.383C115.165 114.714 117.256 108.944 118.175 108.944C118.593 108.944 118.928 109.363 118.928 109.781ZM77.2058 119.479C82.3897 124.413 83.4767 129.764 80.4667 135.7C74.6139 147.155 58.0589 144.814 55.0489 132.105C54.2964 128.844 55.885 123.576 58.5606 120.566C63.2428 115.299 72.2728 114.797 77.2058 119.479Z"
        fill="red" />
</svg>